<?xml version="1.0" encoding="utf-8"?>
<!-- Generator: Adobe Illustrator 18.0.0, SVG Export Plug-In . SVG Version: 6.00 Build 0)  -->
<!DOCTYPE svg PUBLIC "-//W3C//DTD SVG 1.1//EN" "http://www.w3.org/Graphics/SVG/1.1/DTD/svg11.dtd">
<svg version="1.1" id="Layer_1"
	 xmlns="http://www.w3.org/2000/svg" xmlns:xlink="http://www.w3.org/1999/xlink" x="0px" y="0px" viewBox="0 0 200 200"
	 enable-background="new 0 0 178 178" xml:space="preserve">
<g transform="translate(0.000000,178.000000) scale(0.100000,-0.100000)">
	<path fill="white" d="M735,1719c-188-42-362-200-405-369c-16-64-77-163-154-250c-82-92-97-137-54-163c13-9,40,0,125,41
		c101,47,112,51,146,41c36-10,40-16,109-157c105-216,109-268,43-497c-14-46-45-130-70-186c-26-56-44-108-41-115c8-20,50-17,70,4
		c9,11,30,56,46,101c31,85,86,201,96,201c7,0,63-124,108-242c22-56,44-98,51-98c13,0,45,52,45,72c0,4-22,47-50,96
		c-63,111-75,162-55,230c21,71,59,99,209,151c97,33,129,41,140,32c7-6,28-42,47-79c61-123,52-213-38-380c-24-45-41-87-38-92
		c3-6,21-10,39-10c30,0,34,4,60,63c16,34,49,105,74,157s49,113,52,135l6,40l29-44c37-55,43-132,21-250c-17-89-14-100,26-101
		c33,0,46,42,58,181c12,150,10,169-32,249c-39,76-46,159-20,225c11,28,25,50,32,50s39-49,72-110c67-124,83-145,109-145
		c15,0,13,13-22,103c-86,220-148,315-231,358c-47,24-146,39-263,39c-105,0-184,18-273,61c-80,39-192,141-192,175c0,25-4,28-52,38
		c-20,5-28,13-28,27c0,25-17,59-30,59c-6,0-10-7-10-15c0-20-16-19-24,1c-13,34-5,87,23,142c54,105,117,144,271,163
		c126,15,145,34,27,25c-49-4-96-9-105-12c-9-2-1,3,18,12s64,22,98,29c35,8,67,16,70,19C876,1733,780,1729,735,1719z"/>
</g>
</svg>
