<?xml version="1.0" standalone="no"?>
<!DOCTYPE svg PUBLIC "-//W3C//DTD SVG 20010904//EN"
 "http://www.w3.org/TR/2001/REC-SVG-20010904/DTD/svg10.dtd">
<svg version="1.0" xmlns="http://www.w3.org/2000/svg"
 width="178.000000pt" height="178.000000pt" viewBox="0 0 178.000000 178.000000"
 preserveAspectRatio="xMinYMid meet" style="background:white">
<metadata>
Created by potrace 1.10, written by Peter Selinger 2001-2011
</metadata>
<g transform="translate(0.000000,178.000000) scale(0.100000,-0.100000)"
fill="#2bb24c" stroke="none">
<path d="M735 1719 c-188 -42 -362 -200 -405 -369 -16 -64 -77 -163 -154 -250
-82 -92 -97 -137 -54 -163 13 -9 40 0 125 41 101 47 112 51 146 41 36 -10 40
-16 109 -157 105 -216 109 -268 43 -497 -14 -46 -45 -130 -70 -186 -26 -56
-44 -108 -41 -115 8 -20 50 -17 70 4 9 11 30 56 46 101 31 85 86 201 96 201 7
0 63 -124 108 -242 22 -56 44 -98 51 -98 13 0 45 52 45 72 0 4 -22 47 -50 96
-63 111 -75 162 -55 230 21 71 59 99 209 151 97 33 129 41 140 32 7 -6 28 -42
47 -79 61 -123 52 -213 -38 -380 -24 -45 -41 -87 -38 -92 3 -6 21 -10 39 -10
30 0 34 4 60 63 16 34 49 105 74 157 25 52 49 113 52 135 l6 40 29 -44 c37
-55 43 -132 21 -250 -17 -89 -14 -100 26 -101 33 0 46 42 58 181 12 150 10
169 -32 249 -39 76 -46 159 -20 225 11 28 25 50 32 50 7 0 39 -49 72 -110 67
-124 83 -145 109 -145 15 0 13 13 -22 103 -86 220 -148 315 -231 358 -47 24
-146 39 -263 39 -105 0 -184 18 -273 61 -80 39 -192 141 -192 175 0 25 -4 28
-52 38 -20 5 -28 13 -28 27 0 25 -17 59 -30 59 -6 0 -10 -7 -10 -15 0 -20 -16
-19 -24 1 -13 34 -5 87 23 142 54 105 117 144 271 163 126 15 145 34 27 25
-49 -4 -96 -9 -105 -12 -9 -2 -1 3 18 12 19 9 64 22 98 29 35 8 67 16 70 19 8
9 -88 5 -133 -5z"/>
</g>


</svg>
